<svg width="177" height="113" viewBox="0 0 177 113" fill="none" xmlns="http://www.w3.org/2000/svg">
<g clip-path="url(#clip0_639_199)">
<path d="M0 55.6328C0 47.657 5.2992 40.8684 13.534 40.8684C22.4703 40.8684 28.892 47.344 26.755 57.5647H4.65164C4.88879 60.0492 6.047 62.3551 7.89847 64.0288C9.74993 65.7025 12.1606 66.6229 14.6565 66.6089C17.0093 66.6089 21.8768 65.3246 23.1071 63.1877L26.4744 65.8103C23.6899 69.0481 19.0922 70.4619 14.1708 70.4619C5.56902 70.4511 0 62.907 0 55.6328ZM22.5783 53.8196C23.215 50.2904 20.8622 44.7214 13.6419 44.7214C12.453 44.7242 11.2764 44.9622 10.1798 45.4218C9.08329 45.8813 8.08852 46.5533 7.25284 47.399C6.41716 48.2447 5.75709 49.2474 5.31066 50.3494C4.86422 51.4513 4.64025 52.6307 4.65164 53.8196H22.5783Z" fill="#222222"/>
<path d="M72.1813 64.9902V80.1863H67.8643V56.5395C67.8685 53.6576 68.7268 50.8415 70.3306 48.447C71.9344 46.0524 74.2118 44.1869 76.8753 43.086C79.5387 41.9851 82.4686 41.6982 85.295 42.2615C88.1214 42.8247 90.7175 44.213 92.7554 46.2509C94.7933 48.2888 96.1815 50.8848 96.7448 53.7112C97.3081 56.5377 97.0212 59.4676 95.9203 62.131C94.8194 64.7945 92.9538 67.0719 90.5593 68.6757C88.1648 70.2795 85.3487 71.1378 82.4668 71.142C80.3589 71.1301 78.2927 70.5531 76.4837 69.4711C74.6747 68.3891 73.1889 66.8417 72.1813 64.9902ZM72.1813 56.5395C72.1771 58.5755 72.7765 60.567 73.9038 62.2623C75.0312 63.9576 76.6358 65.2807 78.5149 66.0642C80.3941 66.8478 82.4633 67.0566 84.4611 66.6644C86.4589 66.2722 88.2956 65.2965 89.739 63.8606C91.1823 62.4248 92.1676 60.5933 92.5703 58.5975C92.973 56.6018 92.775 54.5315 92.0013 52.6483C91.2276 50.7651 89.913 49.1536 88.2236 48.0174C86.5342 46.8812 84.5458 46.2713 82.5099 46.2649C79.7834 46.2761 77.1709 47.3605 75.2379 49.2835C73.3049 51.2064 72.2068 53.8131 72.1813 56.5395Z" fill="#222222"/>
<path d="M101.667 55.9027C101.671 53.0207 102.53 50.2046 104.133 47.8101C105.737 45.4156 108.015 43.5501 110.678 42.4492C113.341 41.3482 116.271 41.0613 119.098 41.6246C121.924 42.1879 124.52 43.5762 126.558 45.614C128.596 47.6519 129.984 50.248 130.548 53.0744C131.111 55.9008 130.824 58.8308 129.723 61.4942C128.622 64.1576 126.757 66.435 124.362 68.0389C121.968 69.6427 119.151 70.5009 116.269 70.5052C114.351 70.508 112.451 70.1323 110.678 69.3994C108.905 68.6666 107.294 67.5911 105.938 66.2345C104.581 64.878 103.506 63.2671 102.773 61.4942C102.04 59.7212 101.664 57.8211 101.667 55.9027ZM126.544 55.9027C126.538 53.8668 125.928 51.8784 124.792 50.189C123.655 48.4996 122.044 47.185 120.161 46.4113C118.278 45.6376 116.207 45.4396 114.212 45.8423C112.216 46.245 110.384 47.2303 108.948 48.6737C107.513 50.1171 106.537 51.9537 106.145 53.9515C105.752 55.9493 105.961 58.0186 106.745 59.8977C107.528 61.7768 108.851 63.3814 110.547 64.5088C112.242 65.6361 114.234 66.2355 116.269 66.2313C117.623 66.2313 118.964 65.9638 120.214 65.444C121.464 64.9243 122.599 64.1627 123.554 63.2029C124.509 62.243 125.264 61.104 125.778 59.8512C126.291 58.5984 126.551 57.2565 126.544 55.9027Z" fill="#222222"/>
<path d="M137.143 35.5692C137.14 34.8964 137.402 34.2495 137.873 33.7687C138.343 33.2879 138.985 33.0119 139.657 33.0006C140.002 32.9934 140.344 33.0542 140.665 33.1794C140.986 33.3046 141.279 33.4919 141.528 33.7304C141.776 33.9689 141.975 34.2541 142.114 34.5696C142.252 34.8851 142.327 35.2248 142.334 35.5692C142.291 36.2549 141.992 36.8994 141.496 37.3751C141 37.8508 140.344 38.123 139.657 38.1379C138.993 38.1006 138.367 37.8164 137.902 37.3412C137.437 36.8659 137.166 36.2339 137.143 35.5692ZM137.682 41.8829H141.697V69.8683H137.682V41.8829Z" fill="#222222"/>
<path d="M150.407 55.201C150.407 46.7503 155.922 41.613 163.725 41.613C171.528 41.613 177 46.7503 177 55.201V69.8575H172.683V55.201C172.683 49.1571 169.208 45.8869 163.693 45.8869C158.178 45.8869 154.648 49.2542 154.648 55.201V69.8575H150.331L150.407 55.201Z" fill="#222222"/>
<path d="M52.0854 49.7074L60.536 41.2567L63.3529 44.0736L54.9022 52.5243C54.3465 53.0787 53.9056 53.7372 53.6048 54.4623C53.3039 55.1873 53.1491 55.9646 53.1491 56.7496C53.1491 57.5346 53.3039 58.3118 53.6048 59.0369C53.9056 59.7619 54.3465 60.4205 54.9022 60.9749L63.3529 69.4256L60.536 72.2425L52.0854 63.7918C51.531 63.2361 50.8724 62.7952 50.1473 62.4943C49.4223 62.1935 48.645 62.0387 47.86 62.0387C47.075 62.0387 46.2978 62.1935 45.5727 62.4943C44.8477 62.7952 44.1891 63.2361 43.6347 63.7918L35.184 72.2425L32.3779 69.4148L40.8286 60.9641C41.3843 60.4097 41.8252 59.7512 42.1261 59.0261C42.4269 58.3011 42.5818 57.5238 42.5818 56.7388C42.5818 55.9538 42.4269 55.1765 42.1261 54.4515C41.8252 53.7264 41.3843 53.0679 40.8286 52.5135L32.3779 44.106L35.1948 41.2891L43.6455 49.7398C44.769 50.8546 46.2894 51.4774 47.8721 51.4713C49.4549 51.4653 50.9704 50.8308 52.0854 49.7074Z" fill="#222222"/>
<path d="M60.5252 41.2682L52.0746 49.7188C51.5202 50.2746 50.8616 50.7155 50.1365 51.0163C49.4115 51.3171 48.6342 51.472 47.8492 51.472C47.0642 51.472 46.287 51.3171 45.5619 51.0163C44.8369 50.7155 44.1783 50.2746 43.6239 49.7188L35.1732 41.2682L32.3779 44.1066L40.8286 52.5573C41.3843 53.1117 41.8252 53.7703 42.1261 54.4953C42.4269 55.2204 42.5818 55.9977 42.5818 56.7826C42.5818 57.5676 42.4269 58.3449 42.1261 59.0699C41.8252 59.795 41.3843 60.4536 40.8286 61.008L32.3779 69.4155L35.1948 72.2323L43.6455 63.7817C44.1999 63.2259 44.8585 62.785 45.5835 62.4842C46.3086 62.1834 47.0858 62.0285 47.8708 62.0285C48.6558 62.0285 49.4331 62.1834 50.1581 62.4842C50.8832 62.785 51.5417 63.2259 52.0961 63.7817L60.5468 72.2323L63.3637 69.4155L54.913 60.9648C54.3573 60.4104 53.9164 59.7518 53.6156 59.0268C53.3147 58.3017 53.1599 57.5245 53.1599 56.7395C53.1599 55.9545 53.3147 55.1772 53.6156 54.4522C53.9164 53.7271 54.3573 53.0685 54.913 52.5141L63.3637 44.0635L60.5468 41.2466L60.5252 41.2682Z" fill="#222222"/>
<path opacity="0.9" d="M63.3858 43.8904L60.3638 40.8684L58.3995 42.8327C56.9838 44.2528 55.3017 45.3796 53.4497 46.1485C51.5977 46.9173 49.6121 47.3131 47.6069 47.3131C45.6016 47.3131 43.616 46.9173 41.764 46.1485C39.912 45.3796 38.2299 44.2528 36.8142 42.8327L34.8823 40.8684L31.8604 43.8904L33.8246 45.8546C35.2448 47.2703 36.3716 48.9524 37.1404 50.8044C37.9093 52.6565 38.305 54.642 38.305 56.6473C38.305 58.6526 37.9093 60.6381 37.1404 62.4902C36.3716 64.3422 35.2448 66.0243 33.8246 67.44L31.8604 69.4042L34.8823 72.4262L36.8466 70.4619C38.2623 69.0418 39.9444 67.915 41.7964 67.1461C43.6484 66.3773 45.634 65.9815 47.6392 65.9815C49.6445 65.9815 51.6301 66.3773 53.4821 67.1461C55.3341 67.915 57.0162 69.0418 58.4319 70.4619L60.3962 72.4262L63.4181 69.4042L61.4539 67.44C60.0337 66.0243 58.9069 64.3422 58.1381 62.4902C57.3692 60.6381 56.9735 58.6526 56.9735 56.6473C56.9735 54.642 57.3692 52.6565 58.1381 50.8044C58.9069 48.9524 60.0337 47.2703 61.4539 45.8546L63.3858 43.8904Z" fill="#4718FF"/>
</g>
<defs>
<clipPath id="clip0_639_199">
<rect width="177" height="113" fill="white"/>
</clipPath>
</defs>
</svg>
